<mxfile host="app.diagrams.net" modified="2021-09-24T01:53:38.290Z" agent="5.0 (Windows NT 6.2; Win64; x64) AppleWebKit/537.36 (KHTML, like Gecko) Chrome/93.0.4577.82 Safari/537.36" etag="HdXwpArs4-foOh3gomCV" version="15.3.0" type="github">
  <diagram id="kgpKYQtTHZ0yAKxKKP6v" name="Page-1">
    <mxGraphModel dx="920" dy="514" grid="1" gridSize="10" guides="1" tooltips="1" connect="1" arrows="1" fold="1" page="1" pageScale="1" pageWidth="850" pageHeight="1100" math="0" shadow="0">
      <root>
        <mxCell id="0" />
        <mxCell id="1" parent="0" />
        <mxCell id="3nuBFxr9cyL0pnOWT2aG-1" value="SecurityManager" style="shape=umlLifeline;perimeter=lifelinePerimeter;container=1;collapsible=0;recursiveResize=0;rounded=0;shadow=0;strokeWidth=1;fillColor=#99FFFF;" parent="1" vertex="1">
          <mxGeometry x="120" y="80" width="100" height="500" as="geometry" />
        </mxCell>
        <mxCell id="3nuBFxr9cyL0pnOWT2aG-2" value="" style="points=[];perimeter=orthogonalPerimeter;rounded=0;shadow=0;strokeWidth=1;" parent="3nuBFxr9cyL0pnOWT2aG-1" vertex="1">
          <mxGeometry x="45" y="70" width="10" height="390" as="geometry" />
        </mxCell>
        <mxCell id="3nuBFxr9cyL0pnOWT2aG-3" value="subject.hasrole()" style="verticalAlign=bottom;startArrow=oval;endArrow=block;startSize=8;shadow=0;strokeWidth=1;" parent="3nuBFxr9cyL0pnOWT2aG-1" target="3nuBFxr9cyL0pnOWT2aG-2" edge="1">
          <mxGeometry relative="1" as="geometry">
            <mxPoint x="-50" y="70" as="sourcePoint" />
          </mxGeometry>
        </mxCell>
        <mxCell id="3nuBFxr9cyL0pnOWT2aG-5" value="ModularRealmAuthorizer" style="shape=umlLifeline;perimeter=lifelinePerimeter;container=1;collapsible=0;recursiveResize=0;rounded=0;shadow=0;strokeWidth=1;fillColor=#E6FFCC;" parent="1" vertex="1">
          <mxGeometry x="260" y="80" width="120" height="510" as="geometry" />
        </mxCell>
        <mxCell id="3nuBFxr9cyL0pnOWT2aG-6" value="" style="points=[];perimeter=orthogonalPerimeter;rounded=0;shadow=0;strokeWidth=1;" parent="3nuBFxr9cyL0pnOWT2aG-5" vertex="1">
          <mxGeometry x="55" y="80" width="10" height="380" as="geometry" />
        </mxCell>
        <mxCell id="S1QPDe5u1bnXm6yCV7uw-9" value="hasRole" style="html=1;verticalAlign=bottom;endArrow=block;" edge="1" parent="3nuBFxr9cyL0pnOWT2aG-5">
          <mxGeometry x="-0.1429" y="20" width="80" relative="1" as="geometry">
            <mxPoint x="70" y="100" as="sourcePoint" />
            <mxPoint x="210" y="100" as="targetPoint" />
            <mxPoint as="offset" />
          </mxGeometry>
        </mxCell>
        <mxCell id="3nuBFxr9cyL0pnOWT2aG-7" value="trueOrfalse" style="verticalAlign=bottom;endArrow=open;dashed=1;endSize=8;exitX=0;exitY=0.95;shadow=0;strokeWidth=1;" parent="1" source="3nuBFxr9cyL0pnOWT2aG-6" target="3nuBFxr9cyL0pnOWT2aG-2" edge="1">
          <mxGeometry relative="1" as="geometry">
            <mxPoint x="275" y="236" as="targetPoint" />
          </mxGeometry>
        </mxCell>
        <mxCell id="3nuBFxr9cyL0pnOWT2aG-8" value="hasrole()" style="verticalAlign=bottom;endArrow=block;entryX=0;entryY=0;shadow=0;strokeWidth=1;html=1;" parent="1" source="3nuBFxr9cyL0pnOWT2aG-2" target="3nuBFxr9cyL0pnOWT2aG-6" edge="1">
          <mxGeometry y="10" relative="1" as="geometry">
            <mxPoint x="275" y="160" as="sourcePoint" />
            <mxPoint as="offset" />
          </mxGeometry>
        </mxCell>
        <mxCell id="S1QPDe5u1bnXm6yCV7uw-2" value="IniRealm" style="shape=umlLifeline;perimeter=lifelinePerimeter;container=1;collapsible=0;recursiveResize=0;rounded=0;shadow=0;strokeWidth=1;fillColor=#A9C4EB;" vertex="1" parent="1">
          <mxGeometry x="410" y="80" width="120" height="490" as="geometry" />
        </mxCell>
        <mxCell id="S1QPDe5u1bnXm6yCV7uw-3" value="" style="points=[];perimeter=orthogonalPerimeter;rounded=0;shadow=0;strokeWidth=1;" vertex="1" parent="S1QPDe5u1bnXm6yCV7uw-2">
          <mxGeometry x="55" y="80" width="10" height="380" as="geometry" />
        </mxCell>
        <mxCell id="S1QPDe5u1bnXm6yCV7uw-18" value="trueOrfalse" style="html=1;verticalAlign=bottom;endArrow=open;dashed=1;endSize=8;" edge="1" parent="S1QPDe5u1bnXm6yCV7uw-2" source="S1QPDe5u1bnXm6yCV7uw-5">
          <mxGeometry x="0.1003" y="-30" relative="1" as="geometry">
            <mxPoint x="145" y="420" as="sourcePoint" />
            <mxPoint x="65" y="420" as="targetPoint" />
            <mxPoint as="offset" />
          </mxGeometry>
        </mxCell>
        <mxCell id="S1QPDe5u1bnXm6yCV7uw-5" value="AuthorizingRealm" style="shape=umlLifeline;perimeter=lifelinePerimeter;container=1;collapsible=0;recursiveResize=0;rounded=0;shadow=0;strokeWidth=1;fillColor=#FFA04D;" vertex="1" parent="1">
          <mxGeometry x="560" y="80" width="120" height="480" as="geometry" />
        </mxCell>
        <mxCell id="S1QPDe5u1bnXm6yCV7uw-6" value="" style="points=[];perimeter=orthogonalPerimeter;rounded=0;shadow=0;strokeWidth=1;" vertex="1" parent="S1QPDe5u1bnXm6yCV7uw-5">
          <mxGeometry x="55" y="80" width="10" height="400" as="geometry" />
        </mxCell>
        <mxCell id="S1QPDe5u1bnXm6yCV7uw-8" value="hasRole()" style="html=1;verticalAlign=bottom;endArrow=block;" edge="1" parent="S1QPDe5u1bnXm6yCV7uw-5">
          <mxGeometry width="80" relative="1" as="geometry">
            <mxPoint x="-80" y="110" as="sourcePoint" />
            <mxPoint x="55" y="110" as="targetPoint" />
          </mxGeometry>
        </mxCell>
        <mxCell id="S1QPDe5u1bnXm6yCV7uw-10" value="" style="html=1;points=[];perimeter=orthogonalPerimeter;" vertex="1" parent="S1QPDe5u1bnXm6yCV7uw-5">
          <mxGeometry x="60" y="150" width="10" height="150" as="geometry" />
        </mxCell>
        <mxCell id="S1QPDe5u1bnXm6yCV7uw-11" value="&lt;pre style=&quot;font-family: &amp;#34;consolas&amp;#34;&quot;&gt;&lt;font style=&quot;font-size: 10px&quot;&gt;getAuthorizationInfo()&lt;/font&gt;&lt;/pre&gt;" style="edgeStyle=orthogonalEdgeStyle;html=1;align=left;spacingLeft=2;endArrow=block;rounded=0;entryX=1;entryY=0;" edge="1" target="S1QPDe5u1bnXm6yCV7uw-10" parent="S1QPDe5u1bnXm6yCV7uw-5">
          <mxGeometry x="-0.6" y="20" relative="1" as="geometry">
            <mxPoint x="65" y="130" as="sourcePoint" />
            <Array as="points">
              <mxPoint x="65" y="120" />
              <mxPoint x="95" y="120" />
              <mxPoint x="95" y="150" />
            </Array>
            <mxPoint as="offset" />
          </mxGeometry>
        </mxCell>
        <mxCell id="S1QPDe5u1bnXm6yCV7uw-16" value="" style="html=1;points=[];perimeter=orthogonalPerimeter;" vertex="1" parent="S1QPDe5u1bnXm6yCV7uw-5">
          <mxGeometry x="65" y="370" width="10" height="40" as="geometry" />
        </mxCell>
        <mxCell id="S1QPDe5u1bnXm6yCV7uw-17" value="&lt;pre style=&quot;font-family: &amp;#34;consolas&amp;#34; ; font-size: 10px&quot;&gt;hasRole()&lt;/pre&gt;" style="edgeStyle=orthogonalEdgeStyle;html=1;align=left;spacingLeft=2;endArrow=block;rounded=0;entryX=1;entryY=0;" edge="1" target="S1QPDe5u1bnXm6yCV7uw-16" parent="S1QPDe5u1bnXm6yCV7uw-5">
          <mxGeometry relative="1" as="geometry">
            <mxPoint x="70" y="350" as="sourcePoint" />
            <Array as="points">
              <mxPoint x="100" y="350" />
            </Array>
          </mxGeometry>
        </mxCell>
        <mxCell id="S1QPDe5u1bnXm6yCV7uw-12" value="SimpleAccountRealm" style="shape=umlLifeline;perimeter=lifelinePerimeter;whiteSpace=wrap;html=1;container=1;collapsible=0;recursiveResize=0;outlineConnect=0;fillColor=#CCFFFF;" vertex="1" parent="1">
          <mxGeometry x="740" y="80" width="100" height="300" as="geometry" />
        </mxCell>
        <mxCell id="S1QPDe5u1bnXm6yCV7uw-13" value="&lt;pre style=&quot;font-family: &amp;#34;consolas&amp;#34;&quot;&gt;&lt;font style=&quot;font-size: 10px&quot;&gt;doGetAuthorizationInfo()&lt;/font&gt;&lt;/pre&gt;" style="html=1;verticalAlign=bottom;endArrow=block;" edge="1" parent="1" target="S1QPDe5u1bnXm6yCV7uw-12">
          <mxGeometry x="-0.1661" y="10" width="80" relative="1" as="geometry">
            <mxPoint x="636" y="280" as="sourcePoint" />
            <mxPoint x="830" y="250" as="targetPoint" />
            <Array as="points">
              <mxPoint x="720" y="280" />
            </Array>
            <mxPoint as="offset" />
          </mxGeometry>
        </mxCell>
        <mxCell id="S1QPDe5u1bnXm6yCV7uw-15" value="&lt;pre style=&quot;font-family: &amp;#34;consolas&amp;#34; ; font-size: 10px&quot;&gt;AuthorizationInfo&lt;/pre&gt;" style="html=1;verticalAlign=bottom;endArrow=open;dashed=1;endSize=8;entryX=1;entryY=0.813;entryDx=0;entryDy=0;entryPerimeter=0;" edge="1" parent="1" target="S1QPDe5u1bnXm6yCV7uw-10">
          <mxGeometry relative="1" as="geometry">
            <mxPoint x="790" y="350" as="sourcePoint" />
            <mxPoint x="710" y="350" as="targetPoint" />
          </mxGeometry>
        </mxCell>
        <mxCell id="S1QPDe5u1bnXm6yCV7uw-19" value="trueOrfalse" style="html=1;verticalAlign=bottom;endArrow=open;dashed=1;endSize=8;" edge="1" parent="1">
          <mxGeometry x="0.1003" y="-30" relative="1" as="geometry">
            <mxPoint x="464.5" y="510" as="sourcePoint" />
            <mxPoint x="320" y="510" as="targetPoint" />
            <mxPoint as="offset" />
          </mxGeometry>
        </mxCell>
      </root>
    </mxGraphModel>
  </diagram>
</mxfile>
